<!--?xml version="1.0" encoding="utf-8"?-->
<!-- Generator: Adobe Illustrator 18.1.1, SVG Export Plug-In . SVG Version: 6.00 Build 0)  -->

<svg version="1.1" id="_x32_" xmlns="http://www.w3.org/2000/svg" xmlns:xlink="http://www.w3.org/1999/xlink" x="0px" y="0px" viewBox="0 0 512 512" style="width: 256px; height: 256px; opacity: 1;" xml:space="preserve">
<style type="text/css">
	.st0{fill:#F7D2B0;}
</style>
<g>
	<path class="st0" d="M256,131.135c-23.991,0-43.434,19.442-43.434,43.43c0,6.264,1.333,11.418,3.723,15.625
		c0.833-0.111,1.685-0.184,2.551-0.184c5.819,0,11.036,2.526,14.659,6.534c3.223-2.291,7.152-3.642,11.399-3.642
		c5.232,0,9.975,2.049,13.51,5.36c3.558-5.272,9.582-8.737,16.418-8.737c5.169,0,9.86,2.004,13.389,5.249
		c2.056-3.898,5.378-7.012,9.42-8.818c1.16-3.319,1.795-7.086,1.795-11.388C299.43,150.578,279.984,131.135,256,131.135z" style="fill: #F7D2B0;"></path>
	<path class="st0" d="M511.912,260.978c0.257-4.185-0.169-8.562-1.365-13.04l-44.451-142.486c-1.183-4.435-3.591-8.62-6.902-12.38
		c-3.275-3.722-7.445-7.048-12.225-9.824c-4.75-2.76-10.096-4.978-15.794-6.498c-5.668-1.52-11.689-2.357-17.812-2.357H98.649
		c-6.12,0-12.148,0.837-17.82,2.357c-5.691,1.52-11.047,3.738-15.794,6.498c-4.78,2.776-8.954,6.102-12.233,9.824
		c-3.307,3.76-5.712,7.944-6.905,12.38L1.453,247.938c-1.204,4.479-1.626,8.856-1.365,13.04H0v127.384
		c0,27.196,21.781,49.245,48.647,49.245h414.702c26.866,0,48.651-22.049,48.651-49.245V260.978H511.912z M478.497,255.92
		c-0.654,2.481-1.917,4.721-3.686,6.615c-1.784,1.909-4.068,3.451-6.755,4.523c-2.702,1.072-5.793,1.674-9.178,1.674H53.137
		c-3.385,0-6.48-0.602-9.179-1.674c-2.694-1.072-4.985-2.614-6.766-4.523c-1.769-1.894-3.036-4.134-3.69-6.615
		c-0.65-2.468-0.697-5.169-0.037-7.982l38.856-132.846c0.452-1.902,1.425-3.722,2.808-5.352c1.374-1.638,3.15-3.098,5.206-4.317
		c2.045-1.234,4.373-2.218,6.858-2.893c2.478-0.683,5.118-1.057,7.809-1.057h322.008c2.688,0,5.323,0.374,7.798,1.057
		c2.49,0.675,4.81,1.659,6.858,2.893c2.056,1.219,3.825,2.68,5.205,4.317c1.374,1.63,2.35,3.451,2.798,5.352l38.856,132.846
		C479.187,250.751,479.143,253.452,478.497,255.92z" style="fill: #F7D2B0;"></path>
</g>
</svg>
