<!--?xml version="1.0" encoding="utf-8"?-->
<!-- Generator: Adobe Illustrator 18.1.1, SVG Export Plug-In . SVG Version: 6.00 Build 0)  -->

<svg version="1.1" id="_x32_" xmlns="http://www.w3.org/2000/svg" xmlns:xlink="http://www.w3.org/1999/xlink" x="0px" y="0px" viewBox="0 0 512 512" style="width: 256px; height: 256px; opacity: 1;" xml:space="preserve">
<style type="text/css">
	.st0{fill:#F7D2B0;}
</style>
<g>
	<path class="st0" d="M512,159.234c0-2.486-0.099-5.013-0.264-7.572c-1.338-19.604-9.365-38.366-22.279-54.682
		c-19.471-24.542-49.628-44.335-88.802-58.389C361.433,24.586,312.961,16.411,256,16.404
		c-75.952,0.04-136.811,14.475-180.774,38.116c-21.948,11.858-39.735,26.085-52.683,42.46
		c-12.93,16.316-20.958,35.078-22.278,54.673C0.083,154.221,0,156.748,0,159.234c0,0.924,0.116,1.792,0.133,2.708
		C0.083,163.239,0,164.559,0,165.84c-0.033,13.757,2.857,26.382,8.291,37.126c4.046,8.06,9.447,14.979,15.574,20.619
		c9.232,8.472,19.934,14.104,30.718,17.762c4.013,1.355,8.059,2.379,12.089,3.237v229.874c0,5.566,2.246,11.015,6.193,14.945
		c3.931,3.94,9.381,6.194,14.946,6.194H256h168.189c5.566,0,10.999-2.254,14.946-6.194c3.931-3.93,6.193-9.38,6.193-14.945V244.633
		c2.824-0.603,5.648-1.289,8.473-2.131c14.385-4.302,28.95-11.982,40.181-24.979c5.582-6.465,10.206-14.21,13.311-22.956
		c3.105-8.736,4.706-18.406,4.706-28.728c0-1.123-0.083-2.287-0.132-3.427C511.901,161.348,512,160.307,512,159.234z
		 M458.524,184.882c-1.717,3.468-3.864,6.284-6.54,8.811c-3.98,3.757-9.299,6.829-15.607,9.009
		c-6.293,2.188-13.477,3.427-20.463,3.724c-11.28,0.504-20.197,9.835-20.197,21.123v5.318v227.214H248.667h-147.05V232.866v-5.318
		c0-11.288-8.918-20.619-20.198-21.123c-6.209-0.264-12.584-1.272-18.331-3.03c-8.704-2.651-15.657-6.87-20.248-12.337
		c-2.329-2.766-4.195-5.904-5.599-9.9c-1.123-3.262-1.915-7.167-2.18-11.882l0.05-1.182c0.678-9.587,4.608-19.718,13.146-30.346
		c12.7-15.871,36.068-32.047,69.842-43.814c33.724-11.817,77.621-19.339,130.568-19.331c70.586-0.05,125.086,13.443,160.857,32.394
		c17.902,9.438,31.048,20.181,39.553,30.751c8.522,10.628,12.453,20.76,13.146,30.338l0.016,0.694
		C461.91,175.641,460.506,180.819,458.524,184.882z" style="fill: #F7D2B0;"></path>
	<path class="st0" d="M225.002,211.587c-5.846,0-10.57,4.724-10.57,10.57c0,5.846,4.723,10.57,10.57,10.57
		c5.846,0,10.57-4.724,10.57-10.57C235.571,216.31,230.848,211.587,225.002,211.587z" style="fill: #F7D2B0;"></path>
	<path class="st0" d="M335.983,283.46c0-8.762-7.101-15.854-15.854-15.854c-8.77,0-15.855,7.093-15.855,15.854
		c0,8.752,7.085,15.854,15.855,15.854C328.882,299.315,335.983,292.213,335.983,283.46z" style="fill: #F7D2B0;"></path>
	<path class="st0" d="M174.267,306.713c-7.002,0-12.684,5.68-12.684,12.684c0,7.002,5.682,12.684,12.684,12.684
		c7.002,0,12.684-5.682,12.684-12.684C186.951,312.394,181.27,306.713,174.267,306.713z" style="fill: #F7D2B0;"></path>
	<path class="st0" d="M349.723,156.625c-5.846,0-10.57,4.731-10.57,10.57c0,5.838,4.723,10.57,10.57,10.57
		c5.83,0,10.57-4.732,10.57-10.57C360.293,161.356,355.553,156.625,349.723,156.625z" style="fill: #F7D2B0;"></path>
	<path class="st0" d="M246.141,110.118c0-5.838-4.74-10.57-10.57-10.57c-5.846,0-10.57,4.731-10.57,10.57
		c0,5.838,4.723,10.57,10.57,10.57C241.401,120.688,246.141,115.956,246.141,110.118z" style="fill: #F7D2B0;"></path>
	<circle class="st0" cx="123.533" cy="158.739" r="6.342" style="fill: #F7D2B0;"></circle>
	<circle class="st0" cx="157.356" cy="416.638" r="6.342" style="fill: #F7D2B0;"></circle>
	<path class="st0" d="M340.21,391.006c-6.572,0-11.89,5.326-11.89,11.891c0,6.564,5.318,11.89,11.89,11.89
		c6.557,0,11.891-5.326,11.891-11.89C352.102,396.332,346.767,391.006,340.21,391.006z" style="fill: #F7D2B0;"></path>
	<path class="st0" d="M247.676,381.519c-5.384,0-9.76,4.368-9.76,9.752c0,5.384,4.376,9.752,9.76,9.752
		c5.384,0,9.744-4.368,9.744-9.752C257.421,385.887,253.061,381.519,247.676,381.519z" style="fill: #F7D2B0;"></path>
</g>
</svg>
