<!--?xml version="1.0" encoding="utf-8"?-->
<!-- Generator: Adobe Illustrator 18.1.1, SVG Export Plug-In . SVG Version: 6.00 Build 0)  -->

<svg version="1.1" id="_x32_" xmlns="http://www.w3.org/2000/svg" xmlns:xlink="http://www.w3.org/1999/xlink" x="0px" y="0px" viewBox="0 0 512 512" style="width: 256px; height: 256px; opacity: 1;" xml:space="preserve">
<style type="text/css">
	.st0{fill:#4B4B4B;}
</style>
<g>
	<path class="st0" d="M507.638,385.423c-2.991-8.052-7.752-15.014-13.449-20.711c-4.929-4.936-10.619-8.981-16.77-11.994
		c-6.151-3.006-12.849-5.016-19.841-5.595c-5.968-0.505-10.188-0.818-13.522-1.016c-2.486-0.146-4.483-0.227-6.297-0.264
		l-1.748-0.014c-1.938,0-3.598,0.051-5.316,0.109h0.036c-2.018,0.058-4.351,0.124-7.95,0.132l-0.212-0.088l-0.037-0.015
		c-0.921-0.439-2.874-1.733-4.403-2.991c-1.594-1.294-3.057-2.684-3.89-3.518l-0.556-0.57l-0.344-0.358l-0.058-0.066l-29.824-29.823
		l18.144-18.152l0.526-1.923c1.996-7.335,3.006-13.785,3.013-19.724c0-5.463-0.884-10.495-2.581-15.065
		c-2.976-8.038-8.14-14.356-14.144-20.586c-9.053-9.354-20.381-18.941-32.989-34.439c-12.586-15.482-26.46-36.822-39.924-69.337
		c-19.182-46.388-45.437-78.844-74.726-99.621C211.494,9.002,179.28-0.015,148.66,0C107.354,0.029,68.865,16.199,43.086,41.942
		C17.35,67.721,1.174,106.21,1.144,147.515c-0.008,30.621,9.002,62.836,29.794,92.11c20.777,29.297,53.233,55.552,99.621,74.734
		c49.562,20.565,73.11,41.868,89.646,58.543c8.294,8.359,14.787,15.738,22.32,21.516c3.759,2.874,7.825,5.316,12.404,6.998
		c4.57,1.697,9.602,2.582,15.058,2.575c5.945,0,12.396-1.01,19.731-3.006l1.923-0.526l15.848-15.855l29.817,29.816l0.154,0.146
		l0.892,0.863c1.097,1.075,3.481,3.664,5.024,5.902c0.732,1.024,1.316,2.07,1.528,2.546l0.015,0.058
		c-0.007,3.166-0.059,5.353-0.11,7.188c-0.044,1.536-0.088,2.889-0.117,4.403v0.029l-0.015,1.624c0,1.946,0.058,4.11,0.219,6.845
		l-0.008-0.022c0.19,3.502,0.52,8.008,1.076,14.728c0.6,6.992,2.604,13.684,5.609,19.827c3.013,6.158,7.057,11.84,11.986,16.776
		c7.576,7.584,17.479,13.573,29.114,15.789c3.05,0.578,6.195,0.878,9.398,0.878c2.918,0,5.88-0.255,8.856-0.782
		c6.253-1.104,12.469-3.415,18.393-6.896c4.314-2.523,8.22-5.572,11.664-9.024c9.631-9.654,15.592-22.306,17.347-35.82
		c13.522-1.748,26.166-7.716,35.82-17.34l0.014-0.014c3.431-3.437,6.48-7.343,9.011-11.643l0.006-0.015
		c3.467-5.931,5.778-12.14,6.89-18.385c0.534-2.977,0.782-5.931,0.782-8.842C510.856,396.97,509.685,390.944,507.638,385.423z
		 M484.22,407.479c-0.548,3.057-1.69,6.275-3.7,9.712c-1.367,2.333-3.02,4.468-4.929,6.37c-6.67,6.698-16.492,10.546-26.855,10.208
		c-0.534-1.696-1.14-3.393-1.843-5.068c-3.042-7.291-7.671-14.282-13.917-20.528c-5.858-5.865-13.135-11.058-21.83-15.314
		l-8.25,16.856c6.992,3.423,12.513,7.43,16.806,11.73c4.578,4.579,7.781,9.486,9.872,14.488c3.13,7.496,3.767,15.255,2.406,22.393
		c-1.36,7.131-4.739,13.581-9.565,18.408c-1.909,1.909-4.037,3.562-6.378,4.936c-3.43,2.012-6.654,3.152-9.705,3.694
		c-4.57,0.804-8.834,0.307-12.937-1.206c-4.088-1.507-7.972-4.088-11.27-7.387c-2.852-2.852-5.251-6.23-6.97-9.741
		c-1.718-3.518-2.749-7.152-3.02-10.486c-0.49-5.859-0.79-9.918-0.973-12.894c-0.124-2.231-0.19-3.854-0.212-5.2
		c-0.037-2.011,0.015-3.496,0.081-5.784c0.073-2.274,0.154-5.222,0.154-9.749c-0.022-3.634-0.98-6.699-2.15-9.398
		c-1.777-4.044-4.162-7.415-6.407-10.26c-2.252-2.838-4.402-5.083-5.77-6.458l-1.316-1.272l-34.782-34.789l38.833-38.834
		l34.781,34.782l1.273,1.316c1.843,1.828,5.207,5.031,9.485,8.037c2.15,1.499,4.534,2.962,7.233,4.147
		c2.706,1.17,5.762,2.128,9.405,2.142c4.022,0,6.794-0.065,8.966-0.124c1.623-0.043,2.882-0.095,4.08-0.109
		c1.792-0.029,3.548-0.008,6.618,0.161c3.057,0.161,7.365,0.476,13.962,1.024c3.327,0.27,6.969,1.301,10.48,3.028
		c3.518,1.719,6.896,4.117,9.749,6.97c4.41,4.402,7.496,9.807,8.549,15.431C484.703,401.526,484.754,404.43,484.22,407.479z" style="fill: rgb(75, 75, 75);"></path>
</g>
</svg>
