<!--?xml version="1.0" encoding="utf-8"?-->
<!-- Generator: Adobe Illustrator 18.1.1, SVG Export Plug-In . SVG Version: 6.00 Build 0)  -->

<svg version="1.1" id="_x32_" xmlns="http://www.w3.org/2000/svg" xmlns:xlink="http://www.w3.org/1999/xlink" x="0px" y="0px" viewBox="0 0 512 512" style="width: 256px; height: 256px; opacity: 1;" xml:space="preserve">
<style type="text/css">
	.st0{fill:#F7D2B0;}
</style>
<g>
	<path class="st0" d="M417.442,123.348l-26.104,8.28l45.952,48.224c6.233,6.543,7.241,16.482,2.465,24.157
		c-3.69,5.916-10.117,9.319-16.808,9.319c-1.992,0-4-0.294-5.977-0.914l-110.052-34.795l-34.966,47.463
		c-3.737,5.071-9.66,8.063-15.956,8.063c-6.295,0-12.21-2.992-15.947-8.063l-34.966-47.463L95.031,212.413
		c-1.97,0.62-3.986,0.914-5.97,0.914c-6.706,0-13.118-3.403-16.808-9.319c-4.791-7.675-3.776-17.614,2.466-24.157l45.944-48.224
		l-26.104-8.28c-41.036,41.214-66.419,98.035-66.419,160.795C28.139,409.98,130.151,512,255.996,512
		c125.845,0,227.866-102.02,227.866-227.857C483.861,221.383,458.486,164.563,417.442,123.348z M105.815,330.622
		c-6.272,2.736-13.576-0.132-16.305-6.404c-5.008-11.497-7.791-24.204-7.791-37.5c0-12.188,2.341-23.895,6.598-34.617
		c2.519-6.35,9.722-9.458,16.072-6.939c6.365,2.52,9.466,9.722,6.939,16.072c-3.117,7.893-4.838,16.46-4.838,25.484
		c0,9.831,2.046,19.134,5.729,27.616C114.955,320.597,112.087,327.892,105.815,330.622z" style="fill: #F7D2B0;"></path>
	<path class="st0" d="M64.089,92.91l84.234,26.701c1.846,0.573,3.257,2.078,3.737,3.954c0.481,1.876-0.038,3.868-1.38,5.264
		l-46.556,48.874c-1.768,1.853-2.055,4.675-0.698,6.846c1.357,2.18,4.009,3.156,6.458,2.381l98.912-31.268
		c2.295-0.721,4.791,0.093,6.218,2.024l36.47,49.502c1.054,1.443,2.729,2.295,4.512,2.295c1.791,0,3.466-0.852,4.528-2.295
		l36.454-49.502c1.426-1.931,3.93-2.744,6.218-2.024l98.919,31.268c2.442,0.775,5.102-0.202,6.458-2.381
		c1.364-2.17,1.07-4.993-0.698-6.846l-46.564-48.874c-1.334-1.396-1.861-3.388-1.372-5.264c0.488-1.876,1.9-3.38,3.745-3.954
		l84.227-26.701c2.465-0.776,4.078-3.148,3.9-5.722c-0.163-2.582-2.086-4.721-4.629-5.164l-89.305-15.754
		c-1.916-0.341-3.528-1.643-4.241-3.457c-0.721-1.807-0.458-3.869,0.705-5.427L376.15,28.05c1.442-1.939,1.48-4.574,0.109-6.559
		c-1.38-1.97-3.854-2.861-6.172-2.186l-73.388,21.15c-2.148,0.62-4.45-0.094-5.876-1.799L260.314,2.023
		C259.252,0.736,257.67,0,255.996,0c-1.666,0-3.248,0.736-4.31,2.023l-30.508,36.633c-1.427,1.705-3.729,2.419-5.876,1.799
		l-73.382-21.15c-2.326-0.675-4.807,0.217-6.179,2.186c-1.372,1.985-1.334,4.62,0.101,6.559l21.816,29.337
		c1.163,1.558,1.427,3.62,0.714,5.427c-0.729,1.814-2.334,3.116-4.249,3.457L64.81,82.025c-2.543,0.442-4.45,2.582-4.62,5.164
		C60.018,89.763,61.631,92.135,64.089,92.91z" style="fill: #F7D2B0;"></path>
</g>
</svg>
