<!--?xml version="1.0" encoding="utf-8"?-->
<!-- Generator: Adobe Illustrator 18.1.1, SVG Export Plug-In . SVG Version: 6.00 Build 0)  -->

<svg version="1.1" id="_x32_" xmlns="http://www.w3.org/2000/svg" xmlns:xlink="http://www.w3.org/1999/xlink" x="0px" y="0px" viewBox="0 0 512 512" style="width: 256px; height: 256px; opacity: 1;" xml:space="preserve">
<style type="text/css">
	.st0{fill:#F7D2B0;}
</style>
<g>
	<path class="st0" d="M167.397,47.019c-3.563-1.691-9.343-1.657-12.91,0.068L96.805,74.894c-3.546,1.707-3.546,4.468,0.016,6.15
		l57.661,27.195c3.563,1.691,9.342,1.656,12.888-0.059l57.686-27.808c3.563-1.724,3.563-4.475,0-6.157L167.397,47.019z" style="fill: #F7D2B0;"></path>
	<path class="st0" d="M415.179,160.082l-57.657-27.204c-3.567-1.69-9.346-1.656-12.91,0.06l-57.686,27.824
		c-3.542,1.699-3.542,4.459,0.022,6.14l57.657,27.204c3.567,1.681,9.347,1.647,12.892-0.06l57.682-27.815
		C418.747,164.515,418.747,161.763,415.179,160.082z" style="fill: #F7D2B0;"></path>
	<path class="st0" d="M60.321,123.985c-27.628-13.02-42.279-30.899-40.182-49.058c1.852-15.874,16.129-31.008,40.208-42.61
		c27.204-13.114,63.491-20.333,102.169-20.333c37.498,0,72.664,6.854,99.024,19.289c24.856,11.721,39.162,27.17,40.292,43.503
		c0.064,0.892,0.055,1.766,0.038,2.65c6.064-0.935,12.238-1.716,18.515-2.311l-0.119-3.108l-0.233,0.034
		c-2.383-19.348-19.038-37.209-47.198-50.51C243.398,7.652,204.274,0,162.665,0C119.728,0,79.359,8.068,49.005,22.711
		C22.268,35.596,5.833,52.59,2.287,70.868l-0.812-0.424v277.119l0.086,1.911c0,0.9,0.025,1.716,0.081,2.404
		c-0.081,7.22,2.429,12.112,4.094,15.356c0.271,0.518,0.522,1.011,0.798,1.58c7.13,13.657,21.827,26.031,42.504,35.79
		c29.442,13.887,68.571,21.539,110.183,21.539c6.782,0,13.487-0.23,20.116-0.629V142.611c-6.57,0.424-13.241,0.671-19.989,0.671
		C121.851,143.282,86.685,136.42,60.321,123.985z" style="fill: #F7D2B0;"></path>
	<path class="st0" d="M510.393,157.874l-0.234,0.034c-2.386-19.349-19.038-37.218-47.193-50.518
		c-29.442-13.878-68.57-21.522-110.174-21.522c-42.942,0-83.303,8.06-113.658,22.711c-26.736,12.884-43.172,29.879-46.726,48.157
		l-0.806-0.424v277.118l0.089,1.912c-0.004,0.892,0.022,1.707,0.076,2.395c-0.085,7.228,2.429,12.111,4.094,15.356
		c0.272,0.518,0.523,1.011,0.798,1.58c7.13,13.666,21.828,26.041,42.504,35.791C268.607,504.348,307.735,512,349.348,512
		c42.925,0,83.28-8.06,113.64-22.702c29.196-14.065,45.872-32.716,47.35-52.803h0.187V161.364L510.393,157.874z M451.645,208.816
		c-27.208,13.096-63.491,20.324-102.17,20.324c-37.493,0-72.664-6.854-99.027-19.297c-27.633-13.012-42.276-30.89-40.177-49.057
		c1.847-15.865,16.124-31,40.202-42.61c27.204-13.105,63.492-20.316,102.175-20.316c37.493,0,72.66,6.837,99.023,19.28
		c24.846,11.72,39.158,27.161,40.288,43.502C493.194,178.308,478.501,195.863,451.645,208.816z" style="fill: #F7D2B0;"></path>
</g>
</svg>
