<svg width="1430" height="834" viewBox="0 0 1430 834" fill="none" xmlns="http://www.w3.org/2000/svg">
<path fill-rule="evenodd" clip-rule="evenodd" d="M0 74L0 625.585C183.95 720.111 456.941 780 761.674 780C1018.4 780 1252.59 737.495 1430 667.584V74H0Z" fill="#FCC05C"/>
<path opacity="0.5" d="M889.112 474.159C880.532 471.204 870.572 473.562 863.965 479.956C857.358 486.35 855.708 495.622 859.617 503.131L874.22 531.206C862.383 540.329 852.161 550.267 843.425 560.266C834.81 570.166 827.44 580.323 821.442 590.11L748.696 573.968C738.927 571.795 728.347 575.968 722.949 584.143C717.552 592.319 718.695 602.419 725.695 608.83L770.213 649.584L751.895 707.293C749.016 716.369 753.109 725.673 761.843 730.036C770.577 734.399 781.743 732.703 789.192 725.884L844.178 675.278C854.284 680.654 865.658 685.819 878.034 690.055C890.564 694.316 904.352 697.776 919.132 699.717L920.426 731.383C920.769 739.854 926.854 746.974 935.682 749.203C944.51 751.432 954.306 748.459 960.338 741.562L1004.05 691.427C1041.06 678.807 1069.27 656.045 1089.37 632.966C1111.45 607.64 1124.89 580.761 1130.71 562.853C1133.07 555.695 1131.06 548.135 1125.46 543.124C1111.53 530.547 1086.48 514.052 1054.85 503.219C1025.91 493.374 990.246 487.844 951.931 495.548L889.112 474.159ZM1043.24 575.916C1046.13 586.794 1038.66 598.23 1026.52 601.507C1014.38 604.783 1002.23 598.641 999.335 587.762C996.44 576.883 1003.91 565.447 1016.05 562.171C1028.19 558.895 1040.34 565.037 1043.24 575.916Z" fill="#F7D2B0"/>
<g clip-path="url(#clip0_2_59)">
<g opacity="0.5">
<path d="M594.557 517.142C591.639 509.263 586.994 502.451 581.436 496.876C576.627 492.046 571.076 488.088 565.075 485.14C559.074 482.199 552.54 480.232 545.718 479.665C539.896 479.171 535.779 478.865 532.526 478.671C530.101 478.528 528.153 478.449 526.383 478.413L524.678 478.399C522.787 478.399 521.168 478.449 519.491 478.506H519.527C517.558 478.563 515.282 478.627 511.771 478.635L511.564 478.549L511.528 478.534C510.629 478.105 508.724 476.838 507.232 475.607C505.677 474.341 504.25 472.981 503.437 472.165L502.895 471.607L502.559 471.257L502.502 471.192L473.406 442.01L491.107 424.248L491.62 422.366C493.568 415.189 494.553 408.878 494.56 403.066C494.56 397.72 493.698 392.797 492.042 388.325C489.139 380.459 484.101 374.277 478.243 368.181C469.411 359.028 458.359 349.647 446.059 334.482C433.78 319.333 420.245 298.451 407.109 266.635C388.395 221.243 362.781 189.485 334.206 169.154C305.639 148.809 274.211 139.985 244.338 140C204.04 140.028 166.49 155.851 141.34 181.041C116.232 206.266 100.451 243.928 100.422 284.346C100.414 314.309 109.204 345.832 129.489 374.477C149.759 403.144 181.423 428.835 226.679 447.605C275.032 467.728 298.005 488.574 314.137 504.89C322.229 513.07 328.564 520.29 335.913 525.944C339.58 528.756 343.547 531.146 348.014 532.792C352.473 534.452 357.382 535.318 362.705 535.312C368.505 535.312 374.798 534.323 381.954 532.37L383.83 531.855L399.292 516.341L428.381 545.516L428.531 545.659L429.402 546.504C430.472 547.556 432.798 550.089 434.303 552.279C435.017 553.281 435.587 554.305 435.794 554.77L435.808 554.827C435.802 557.925 435.751 560.065 435.701 561.861C435.658 563.364 435.615 564.688 435.587 566.169V566.197L435.572 567.786C435.572 569.691 435.629 571.808 435.786 574.484L435.778 574.463C435.963 577.89 436.285 582.299 436.828 588.875C437.413 595.716 439.368 602.265 442.3 608.276C445.24 614.301 449.185 619.861 453.994 624.691C461.385 632.112 471.046 637.973 482.397 640.141C485.373 640.706 488.441 641 491.566 641C494.413 641 497.302 640.751 500.206 640.235C506.306 639.155 512.371 636.893 518.15 633.487C522.359 631.018 526.169 628.035 529.529 624.657C538.925 615.21 544.741 602.83 546.453 589.606C559.645 587.896 571.981 582.056 581.399 572.639L581.413 572.625C584.76 569.262 587.735 565.44 590.204 561.232L590.21 561.218C593.592 555.414 595.847 549.339 596.932 543.228C597.453 540.315 597.694 537.424 597.694 534.576C597.696 528.441 596.554 522.545 594.557 517.142ZM571.71 538.725C571.176 541.716 570.062 544.865 568.101 548.228C566.767 550.511 565.154 552.6 563.292 554.461C556.785 561.015 547.202 564.781 537.092 564.45C536.571 562.79 535.98 561.13 535.294 559.491C532.326 552.356 527.81 545.516 521.717 539.404C516.002 533.665 508.902 528.583 500.419 524.419L492.371 540.913C499.192 544.262 504.578 548.183 508.767 552.391C513.233 556.871 516.358 561.673 518.398 566.567C521.451 573.902 522.073 581.495 520.745 588.479C519.418 595.457 516.122 601.768 511.413 606.492C509.551 608.36 507.475 609.977 505.191 611.322C501.845 613.29 498.699 614.406 495.723 614.936C491.264 615.723 487.104 615.237 483.102 613.756C479.113 612.282 475.324 609.756 472.107 606.528C469.324 603.737 466.984 600.432 465.307 596.996C463.631 593.554 462.625 589.998 462.36 586.735C461.882 581.002 461.59 577.031 461.411 574.118C461.29 571.935 461.226 570.347 461.204 569.03C461.168 567.062 461.219 565.609 461.283 563.37C461.354 561.145 461.433 558.261 461.433 553.831C461.412 550.275 460.477 547.276 459.336 544.635C457.602 540.678 455.275 537.379 453.085 534.595C450.888 531.818 448.791 529.621 447.456 528.276L446.172 527.031L412.239 492.99L450.124 454.99L484.057 489.025L485.299 490.313C487.097 492.101 490.379 495.235 494.552 498.177C496.65 499.644 498.976 501.075 501.609 502.235C504.249 503.38 507.23 504.317 510.784 504.331C514.708 504.331 517.412 504.267 519.531 504.209C521.115 504.167 522.343 504.116 523.512 504.103C525.26 504.074 526.973 504.095 529.968 504.26C532.951 504.418 537.154 504.726 543.59 505.262C546.836 505.526 550.389 506.535 553.814 508.225C557.246 509.907 560.542 512.254 563.325 515.046C567.627 519.353 570.638 524.642 571.665 530.145C572.182 532.899 572.231 535.741 571.71 538.725Z" fill="#F7D2B0"/>
</g>
</g>
<g clip-path="url(#clip1_2_59)">
<g opacity="0.5">
<path d="M892.032 275.526L841.797 342.169L844.25 344.021L844.255 344.027L844.257 344.025L844.344 344.092L892.597 280.095L894.527 277.54C897.666 280.082 902.181 279.678 904.619 276.715L913.21 266.184C913.398 265.991 913.538 265.765 913.679 265.539C909.941 266.06 906.102 266.639 902.282 267.291C900.733 267.566 899.185 267.838 897.663 268.069C897.211 268.156 896.713 268.22 896.264 268.309C895.99 268.326 895.737 268.417 895.465 268.432C893.766 268.736 892.094 268.995 890.424 269.254C889.186 269.501 888 269.677 886.791 269.879L886.553 269.891C886.557 269.899 886.564 269.907 886.569 269.917C886.532 269.924 886.493 269.93 886.454 269.936C886.843 270.682 887.334 271.369 887.929 271.994L830.822 335.746L830.499 336.104L830.428 336.182L832.816 338.251L890.335 274.143L892.032 275.526Z" fill="#F7D2B0"/>
<path d="M1188.04 273.107L1150.57 260.957L1138.25 256.929L1138.2 256.916L1138.18 256.91L1138.08 256.882C1137.89 257.705 1137.71 258.529 1137.48 259.321C1137.3 260.024 1137.1 260.772 1136.85 261.489C1136.31 263.405 1135.61 265.275 1134.81 267.085C1132.98 271.186 1130.57 275.047 1127.65 278.583C1127.49 278.732 1127.35 278.955 1127.24 279.136C1126.61 279.933 1125.87 280.71 1125.12 281.49C1124.4 282.224 1123.65 283.004 1122.84 283.676C1121.81 284.59 1120.8 285.461 1119.73 286.345L1123.27 298.471L1136.26 342.738L1137.68 347.599C1137.68 347.6 1137.68 347.596 1137.69 347.595L1137.71 347.702C1142.32 346.104 1146.83 344.134 1151.16 341.924C1160.03 337.385 1168.18 331.776 1175.65 325.163C1182.97 318.462 1189.6 310.762 1195.01 302.288C1197.81 297.797 1200.37 293.157 1202.6 288.309C1202.98 287.486 1203.37 286.663 1203.73 285.765C1204.35 284.344 1204.96 282.847 1205.48 281.365L1205.51 281.322C1205.81 280.658 1206.03 279.998 1206.24 279.292C1206.26 279.256 1206.27 279.215 1206.29 279.178L1206.28 279.176C1206.29 279.143 1206.31 279.114 1206.32 279.077L1188.04 273.107Z" fill="#F7D2B0"/>
<path d="M1118.92 188.029L1116.8 204.084L1116.75 204.369C1117.57 204.95 1118.39 205.528 1119.23 206.187C1119.93 206.749 1120.67 207.348 1121.42 207.942C1122.34 208.775 1123.29 209.686 1124.19 210.565C1125.21 211.651 1126.2 212.712 1127.15 213.815L1127.33 214.054C1128.19 215.096 1129.07 216.215 1129.87 217.349L1130.11 217.183L1141.45 210.458L1196.77 177.498C1195.73 175.587 1194.66 173.722 1193.51 171.871C1193 171.111 1192.54 170.382 1192.03 169.62C1191.1 168.159 1190.19 166.773 1189.21 165.4L1188.96 165.055C1188.01 163.639 1186.95 162.283 1185.94 160.957C1184.38 158.914 1182.8 156.914 1181.17 155.006L1181.12 154.975C1173.91 146.537 1165.57 138.834 1156.34 132.255C1148.49 126.672 1140.06 121.872 1131.21 118.014C1130.35 117.631 1129.5 117.205 1128.64 116.841L1128.64 116.869C1128.6 116.853 1128.57 116.835 1128.53 116.821L1118.92 188.029Z" fill="#F7D2B0"/>
<path d="M1064.08 349.566C1070.49 351.492 1077.07 352.833 1083.72 353.653C1091.98 354.614 1100.4 354.801 1108.74 354.06C1109.36 354.015 1110.06 353.953 1110.75 353.89C1112.44 353.705 1114.09 353.491 1115.8 353.262L1115.88 353.248C1117.55 352.989 1119.25 352.685 1120.9 352.353C1121.62 352.244 1122.37 352.094 1123.08 351.912C1125.03 351.518 1126.92 351.021 1128.8 350.52C1129.28 350.385 1129.81 350.279 1130.27 350.07L1116.18 302.063L1113.64 293.351L1112.99 291.032C1112.98 291.037 1112.97 291.043 1112.96 291.047L1112.93 290.938C1111.82 291.553 1110.67 292.139 1109.47 292.695C1108.73 293.042 1107.99 293.387 1107.2 293.704C1106.41 294.022 1105.7 294.321 1104.87 294.609L1104.66 294.729L1104.48 294.803L1104.46 294.847L1104.28 294.924C1103.59 295.179 1102.86 295.404 1102.08 295.602C1101.23 295.813 1100.42 296.054 1099.57 296.267L1097.94 296.675C1095.28 297.25 1092.59 297.677 1089.8 297.923C1084.89 298.326 1079.88 298.161 1074.83 297.411L1068.83 296.502C1068.83 296.502 1068.85 296.579 1068.87 296.654C1069.19 297.924 1069.29 299.236 1069.12 300.567L1068.87 302.974L1064.3 344.893C1064.12 346.379 1063.66 347.704 1062.9 348.984C1062.87 349.023 1062.85 349.059 1062.82 349.097L1062.84 349.104C1062.82 349.134 1062.82 349.168 1062.8 349.199L1064.08 349.566Z" fill="#F7D2B0"/>
<path d="M1145.05 216.797L1136.61 221.737L1133.64 223.435C1133.64 223.439 1133.64 223.44 1133.64 223.444L1133.54 223.48C1134.4 225.152 1135.14 226.809 1135.83 228.555C1137.29 232.54 1138.38 236.798 1138.82 241.144C1138.92 241.833 1138.97 242.487 1138.99 243.192C1139.1 244.7 1139.09 246.194 1139.12 247.719C1139.04 248.481 1139.08 249.259 1138.98 249.946L1139.2 250.019L1151.78 253.959L1208.62 271.895L1208.85 271.105L1209.34 269.159L1209.79 267.379C1210.47 264.926 1210.88 262.37 1211.38 259.873C1212.2 254.761 1212.86 249.602 1213.02 244.385C1213.52 233.999 1212.49 223.407 1210.28 212.936C1208.27 203.792 1205.17 194.768 1201.09 186.127C1200.85 185.598 1200.64 185.053 1200.39 184.53L1200.38 184.539C1200.36 184.505 1200.35 184.471 1200.33 184.436L1145.05 216.797Z" fill="#F7D2B0"/>
<path d="M1085.36 165.706C1085.73 166.259 1086.07 166.781 1086.33 167.199C1088.31 170.45 1089.86 173.869 1090.82 177.482C1092.43 182.475 1092.91 187.705 1092.41 192.836C1092.29 193.873 1092.19 194.915 1091.98 195.948C1091.99 195.947 1092.01 195.949 1092.03 195.949C1092.02 195.991 1092.01 196.031 1091.99 196.055C1092.54 196.024 1093.1 196.065 1093.64 196.154C1093.96 196.169 1094.28 196.184 1094.6 196.197L1094.79 196.199C1095.45 196.3 1096.09 196.328 1096.75 196.431L1097.46 196.563L1098.82 196.797L1098.87 196.826L1100.25 197.137C1103.38 197.801 1106.43 198.914 1109.41 200.236L1109.43 200.128C1109.44 200.13 1109.45 200.135 1109.45 200.137L1109.44 200.098L1109.46 199.95L1111.62 184.041L1111.57 184.012L1121.08 113.926C1120.21 113.631 1119.35 113.335 1118.48 113.038C1115.76 112.133 1113.01 111.392 1110.28 110.61C1104.78 109.206 1099.22 108.011 1093.56 107.311C1089.58 106.737 1085.54 106.375 1081.54 106.164C1080.9 106.136 1080.3 106.138 1079.66 106.11C1077.8 106.054 1075.92 106 1074 106.034L1073.68 106.021C1072.03 106.04 1070.42 106.089 1068.77 106.109C1066.51 106.249 1064.31 106.42 1062.1 106.59C1061.25 106.684 1060.36 106.745 1059.52 106.839C1053.36 107.57 1047.3 108.797 1041.35 110.349C1039.95 110.691 1038.5 110.97 1037.13 111.347L1037 111.266C1036.19 111.509 1035.34 111.72 1034.58 111.99C1034.7 112.003 1034.77 111.989 1034.84 112.092C1041.18 114.662 1047 118.708 1051.94 123.956C1058.73 131.186 1065.2 138.715 1071.18 146.303C1075.91 152.298 1080.55 158.663 1084.97 165.154C1085.11 165.363 1085.22 165.497 1085.36 165.706Z" fill="#F7D2B0"/>
<path d="M930.947 208.93C930.779 209.078 930.638 209.221 930.484 209.365C930.386 209.425 930.298 209.531 930.19 209.558C930.223 209.552 930.255 209.559 930.287 209.552C930.246 209.593 930.188 209.639 930.151 209.677C931.531 209.361 932.972 209.894 933.899 211.041C935.275 212.727 935.054 215.089 933.405 216.364C932.098 217.356 930.297 217.283 928.914 216.348C928.619 216.116 928.321 215.895 928.101 215.569C928.104 215.611 928.124 215.645 928.129 215.688C928.087 215.644 928.03 215.622 927.99 215.573C928.14 217.232 928.709 218.845 929.864 220.26C932.785 223.794 937.91 224.526 941.41 221.856C944.909 219.187 945.385 214.103 942.539 210.556C939.618 207.02 934.448 206.258 930.947 208.93Z" fill="#F7D2B0"/>
<path d="M1063.49 301.39L1063.68 299.699C1063.87 298.249 1063.38 296.817 1062.5 295.697C1062.48 295.622 1062.46 295.549 1062.37 295.488C1061.65 294.535 1060.59 293.806 1059.36 293.465L995.604 275.669C993.046 274.928 990.6 276.01 989.396 277.942C988.668 279.111 988.413 280.575 988.769 282.114L994.965 306.739C995.329 308.157 995.101 309.578 994.392 310.819L979.819 335.908C977.75 339.544 980.413 344.229 984.736 344.458L1053.09 348.762C1054.53 348.863 1055.95 348.38 1056.95 347.513C1057.37 347.149 1057.75 346.762 1058.06 346.266C1058.47 345.593 1058.73 344.875 1058.83 344.069L1063.49 301.39ZM1043.4 311.293L1012.36 302.954L1013.28 298.842L1044 307.167L1043.43 311.092L1043.4 311.293ZM1008.04 321.69L1040.96 324.706L1041.01 324.736L1041.4 324.734L1040.85 328.889L1040.16 328.834L1007.85 325.891L1008.04 321.69Z" fill="#F7D2B0"/>
<path d="M846.463 261.52C856.236 263.435 870.826 261.508 885.951 259.046C891.32 258.119 896.735 257.222 902.003 256.356C903.702 256.051 905.373 255.792 907.017 255.578L907.12 255.521C908.641 255.29 910.163 255.062 911.655 254.878C912.902 254.666 914.049 254.513 915.221 254.315C923.653 253.319 931.308 252.835 937.267 253.596C937.757 253.654 938.292 253.742 938.753 253.846C940.043 254.095 941.284 254.317 942.553 254.492L943.163 254.566L943.748 254.684C945.627 254.93 947.461 255.151 949.293 255.369C949.538 255.398 949.831 255.458 950.073 255.486L951.737 255.66C952.698 255.703 953.627 255.79 954.604 255.906C955.243 255.936 955.928 255.993 956.568 256.021C957.208 256.049 957.847 256.077 958.486 256.105L959.444 256.147C959.728 256.158 960.051 256.186 960.362 256.171C960.401 256.181 960.429 256.177 960.473 256.189L958.85 261.529L958.611 262.441L957.25 266.84L956.365 266.783L954.308 266.608C953.668 266.58 952.983 266.523 952.326 266.419L943.211 272.305L919.52 314.349L919.41 314.527C918.234 316.416 915.721 317.08 913.752 316.026C911.658 314.955 910.905 312.475 911.966 310.456L911.995 310.41L934.508 266.244L934.732 265.884C935.004 265.448 935.39 265.086 935.84 264.76C936.028 264.653 936.16 264.54 936.415 264.432C936.371 264.426 936.315 264.424 936.27 264.418L936.427 264.326C934.864 264.092 933.025 263.993 930.974 264.012C929.473 264.003 927.866 264.05 926.155 264.162L904.639 306.516C903.112 309.493 902.873 312.722 903.901 315.812C904.951 318.978 907.152 321.556 910.119 323.118C915.96 326.18 923.147 324.336 926.477 318.99L926.672 318.676L949.56 278.13L952.585 276.202L954.854 274.854L942.479 315.645C941.497 318.591 941.794 321.907 943.35 324.891C944.858 327.848 947.407 330.081 950.528 331.178C956.082 333.121 961.974 331.146 964.938 326.385C965.358 325.711 965.758 324.962 966.036 324.199L985.397 266.967L986.799 265.664L994.096 259.006L1002.27 251.468L1002.3 251.422C1002.68 251.344 1003.08 251.226 1003.45 251.151C1004.26 250.91 1005.07 250.668 1005.87 250.425C1006.5 250.26 1007.16 250.049 1007.82 249.837L1008.25 249.672C1008.98 249.445 1009.63 249.235 1010.32 248.979C1011.41 248.6 1012.47 248.271 1013.51 247.864C1014.12 247.621 1014.73 247.382 1015.34 247.14C1016.78 246.614 1018.13 246.027 1019.56 245.427L1020.8 244.9L1021.26 244.69C1022 244.341 1022.74 243.996 1023.48 243.65L1024.68 243.094C1025.25 242.824 1025.84 242.507 1026.43 242.194L1027.38 241.727C1027.97 241.412 1028.6 241.125 1029.14 240.781C1029.89 240.434 1030.61 240.014 1031.38 239.624C1032.02 239.218 1032.72 238.843 1033.36 238.438L1033.67 238.256C1034.37 237.882 1035.04 237.43 1035.73 237.056L1036.72 236.424C1037.16 236.14 1037.6 235.853 1038.04 235.569C1040.57 233.92 1043.02 232.207 1045.44 230.422L1046.46 229.628C1047.09 229.148 1047.72 228.667 1048.35 228.19C1055.48 222.43 1062.61 216.671 1069.69 210.883C1070.71 210.086 1071.66 209.307 1072.6 208.529C1074.73 206.802 1076.43 204.809 1077.8 202.609C1078.86 200.9 1079.71 199.121 1080.32 197.191L1080.35 197.145C1080.37 197.101 1080.37 197.101 1080.4 197.058C1080.38 196.983 1080.38 196.983 1080.41 196.938C1082.43 190.639 1082.06 183.333 1079.1 176.588C1078.52 175.093 1077.81 173.706 1076.99 172.378C1076.66 171.855 1076.33 171.333 1075.97 170.855C1071.72 164.608 1067.29 158.552 1062.62 152.661C1056.76 145.205 1050.56 137.975 1044.04 131.047C1036.39 122.893 1026.13 118.916 1016.47 119.452L1016.42 119.421C1015.91 119.407 1015.41 119.471 1014.91 119.529C1010.14 120.022 1005.61 121.604 1001.68 124.439C977.917 141.409 954.445 158.751 931.222 176.437C907.772 194.48 862.769 229.638 841.499 247.243C841.161 247.467 840.92 247.751 840.677 248.037C840.386 248.294 840.219 248.561 840.023 248.877L839.828 249.19C839.65 249.579 839.503 249.923 839.371 250.341C839.029 251.313 838.98 252.345 839.048 253.391C839.108 253.929 839.214 254.495 839.376 254.975C839.988 257.048 841.369 259.048 843.299 260.267C843.488 260.386 843.754 260.49 843.943 260.609C844.724 261.043 845.544 261.311 846.463 261.52ZM1041.12 153.667C1040.44 153.922 1039.66 153.805 1039.07 153.374L1039.02 153.345C1033.39 149.102 1027.59 146.503 1021.39 145.713C1015.19 144.924 1009.06 146.002 1002.8 148.677L1002.77 148.723C1001.81 149.113 1000.63 148.685 1000.14 147.685C999.797 146.969 999.923 146.237 1000.33 145.684C1005.05 139.588 1013.8 136.602 1022.03 137.731C1030.31 138.767 1038.34 143.902 1042 151.093C1042.45 152.063 1042.07 153.2 1041.12 153.667ZM949.336 205.335C955.345 212.76 954.325 223.256 947.062 228.804C939.798 234.355 929.031 232.875 923.022 225.451C917.011 218.024 918.033 207.529 925.294 201.98C932.558 196.43 943.324 197.91 949.336 205.335ZM1034.69 193.722L1036.09 192.417C1037.71 190.873 1040.39 190.999 1041.97 192.683L1044.67 195.516C1046.02 196.931 1046.19 198.978 1045.24 200.504L1044.53 201.313L1043.13 202.618L1031.49 213.29L1028.14 216.365L997.67 244.307L987.196 253.962L986.269 254.816L986.242 254.86L979.421 261.067L978.179 262.222L976.641 266.692L958.299 321.127L958.27 321.173L957.872 321.92C956.892 323.493 954.866 324.214 952.964 323.578C950.828 322.792 949.643 320.479 950.367 318.37L950.394 318.326L965.634 267.814L965.836 267.067L967.494 261.668L967.521 261.623L968.732 257.57L968.798 257.36L969.208 256.492L969.421 256.253L969.88 255.727L970.067 255.533L971.526 254.139L989.219 237.218L992.112 234.473L995.03 231.686L1020.52 207.298L1021.72 206.116L1034.69 193.722Z" fill="#F7D2B0"/>
</g>
</g>
<defs>
<clipPath id="clip0_2_59">
<rect width="499.507" height="501" fill="white" transform="translate(99.3055 140)"/>
</clipPath>
<clipPath id="clip1_2_59">
<rect width="347.141" height="365.633" fill="white" transform="matrix(0.52863 -0.848852 0.845519 0.533945 790.472 294.672)"/>
</clipPath>
</defs>
</svg>
